:SAMPLES-PER-SECOND 30
:FULLY-SPECIFIED
:DEGREES
1623
root  -56.7051 32.7586 8.94094 -22.418 -79.5698 17.9395
RightUpLeg  -40.7238 -28.4379 -6.47208
RightLeg  72.539 -0.0445885 -1.17486
RightFoot  -21.4734 -0.233925 -0.99841
RightToes  -1.33073e-015 0 -3.6325e-017
Spine  99.7669 -26.0366 13.0467
Spine1  -13.242 -8.46813 -5.34707
HEad  -45.7914 -9.7162 -0.812943
LeftShoulder1  0.371025 -18.4726 7.72896
LeftArm  -62.3037 -66.0073 3.79794
LeftForeArm  -17.0377 -12.6621 3.67999
LeftHand  -0.0122395 5.59114 5.92431
RightShoulder  -0.678658 11.2541 -14.9687
RightArm  -52.3577 51.3953 -20.4644
RightForeArm  -34.2641 -4.34364 -3.50392
RightHand  -0.0976216 7.63249 -1.19373
LeftUpLeg  -45.3285 -1.81424 -7.83108
LeftLeg  62.4489 -0.838905 -1.13871
LeftFoot  -9.21825 -0.12275 9.60061
LeftToes  -1.93726e-010 2.42366e-011 2.16268e-013
1624
root  -56.527 32.9327 8.89128 -22.9438 -79.5729 18.5539
RightUpLeg  -40.4641 -28.5643 -6.30991
RightLeg  71.2053 -0.010359 -0.949036
RightFoot  -21.2151 -0.299484 -1.80336
RightToes  -1.33073e-015 0 -3.6325e-017
Spine  99.0812 -25.6829 13.5144
Spine1  -13.6741 -8.05663 -4.85372
HEad  -44.9287 -10.1153 -1.01649
LeftShoulder1  0.360888 -18.3561 7.76866
LeftArm  -61.3819 -67.2768 1.04592
LeftForeArm  -14.9156 -12.1972 4.22584
LeftHand  0.0266328 6.40548 6.15965
RightShoulder  -0.563216 11.3957 -14.0195
RightArm  -51.641 51.9141 -19.9568
RightForeArm  -36.025 -3.82761 -3.07705
RightHand  -0.448105 8.64594 -4.10759
LeftUpLeg  -45.0005 -1.75802 -7.87632
LeftLeg  61.1039 -0.861279 -1.1064
LeftFoot  -8.37461 -0.195954 9.50811
LeftToes  -1.93726e-010 2.42366e-011 2.16268e-013
1625
root  -56.3263 33.2108 8.85757 -22.3117 -79.5944 19.0945
RightUpLeg  -41.4797 -28.6715 -5.39314
RightLeg  69.449 -0.108571 -1.15367
RightFoot  -20.2315 -0.299967 -2.10288
RightToes  -1.33073e-015 0 -3.6325e-017
Spine  97.3762 -25.7592 13.5565
Spine1  -13.8083 -8.81565 -5.5555
HEad  -44.4863 -9.16386 -0.950821
LeftShoulder1  0.668178 -17.8307 6.08052
LeftArm  -57.703 -67.5503 0.762983
LeftForeArm  -17.3664 -10.6305 3.84915
LeftHand  -0.0105636 5.66952 5.95098
RightShoulder  -0.432887 10.5479 -13.2246
RightArm  -54.522 55.1602 -16.203
RightForeArm  -36.4554 -1.60244 -3.70464
RightHand  -0.728811 9.59207 -5.99058
LeftUpLeg  -45.4845 -1.92439 -7.77375
LeftLeg  59.0645 -1.05802 -1.35869
LeftFoot  -7.06946 -0.300079 9.16575
LeftToes  -1.93726e-010 2.42366e-011 2.16268e-013
1626
root  -56.1424 33.6439 8.82359 -21.8548 -79.4932 19.8645
RightUpLeg  -41.7826 -29.2302 -4.62842
RightLeg  66.5892 -0.0481516 -0.833839
RightFoot  -19.3443 -0.341742 -3.01453
RightToes  -1.33073e-015 0 -3.6325e-017
Spine  94.6176 -25.2899 13.994
Spine1  -12.0903 -8.89871 -5.31145
HEad  -45.3064 -8.7011 -1.39322
LeftShoulder1  0.95182 -16.8013 4.27964
LeftArm  -55.1579 -68.3517 -2.63966
LeftForeArm  -18.7247 -10.0268 3.9744
LeftHand  -0.0809072 4.32258 6.87093
RightShoulder  -0.211354 9.9486 -11.4783
RightArm  -56.1516 57.5305 -14.1297
RightForeArm  -39.0265 0.971959 -3.63737
RightHand  -1.1737 11.5021 -8.46351
LeftUpLeg  -45.3806 -2.30625 -7.76463
LeftLeg  55.9916 -1.13604 -1.31935
LeftFoot  -5.4294 -0.430571 8.9474
LeftToes  -1.93726e-010 2.42366e-011 2.16268e-013
1627
root  -55.9448 34.1906 8.75222 -24.278 -79.7028 22.9444
RightUpLeg  -41.0654 -29.3242 -4.35529
RightLeg  63.0332 0.119652 -0.334812
RightFoot  -18.3017 -0.364254 -3.95331
RightToes  -1.33073e-015 0 -3.6325e-017
Spine  92.2937 -23.8882 14.0533
Spine1  -10.2702 -8.30692 -4.38946
HEad  -46.2484 -9.73595 -2.53183
LeftShoulder1  1.37656 -15.3225 1.30813
LeftArm  -49.3369 -69.7703 -11.3583
LeftForeArm  -16.9355 -9.82069 4.10624
LeftHand  -0.117844 3.8822 8.00688
RightShoulder  0.0614838 9.28254 -9.14616
RightArm  -54.9304 59.1892 -10.9588
RightForeArm  -40.2391 3.98419 -2.96847
RightHand  -1.43606 12.23 -9.84324
LeftUpLeg  -44.1668 -2.75035 -7.81353
LeftLeg  52.133 -0.903225 -0.786636
LeftFoot  -3.6644 -0.546607 8.47906
LeftToes  -1.93726e-010 2.42366e-011 2.16268e-013
1628
root  -55.7418 34.7916 8.6786 -26.1885 -80.1327 25.7119
RightUpLeg  -40.6545 -29.5273 -3.67767
RightLeg  59.2938 0.471283 0.341266
RightFoot  -16.4786 -0.3147 -4.53792
RightToes  -1.33073e-015 0 -3.6325e-017
Spine  89.2572 -22.5043 14.0316
Spine1  -7.70964 -8.00533 -3.8201
HEad  -47.3154 -8.80228 -3.05472
LeftShoulder1  1.65172 -14.267 -0.954616
LeftArm  -41.2663 -68.7034 -19.3298
LeftForeArm  -16.405 -8.84739 3.26919
LeftHand  -0.118134 3.9553 8.40206
RightShoulder  0.202209 8.79691 -7.78272
RightArm  -51.3029 60.506 -4.22357
RightForeArm  -39.1103 6.78192 -2.54661
RightHand  -1.60093 13.5866 -10.1648
LeftUpLeg  -42.9124 -3.15774 -7.533
LeftLeg  47.7704 -0.723667 -0.43642
LeftFoot  -1.80908 -0.621125 7.54599
LeftToes  -1.93726e-010 2.42366e-011 2.16268e-013
1629
root  -55.5727 35.3943 8.66582 -27.9862 -80.5538 28.5125
RightUpLeg  -40.2709 -30.3034 -2.92848
RightLeg  55.3697 1.2712 1.54173
RightFoot  -14.5659 -0.244413 -5.15702
RightToes  -1.33073e-015 0 -3.6325e-017
Spine  85.5585 -21.9056 14.1041
Spine1  -4.97337 -8.34994 -4.59607
HEad  -48.7432 -8.67735 -3.78932
LeftShoulder1  1.88905 -13.2701 -3.18746
LeftArm  -33.0747 -65.879 -26.0556
LeftForeArm  -16.4034 -7.70445 1.67578
LeftHand  -0.0728229 4.61936 8.3567
RightShoulder  0.383429 7.66739 -5.73938
RightArm  -45.1735 62.8167 5.06536
RightForeArm  -35.2683 8.24078 -1.98622
RightHand  -1.7564 14.3496 -10.7035
LeftUpLeg  -41.7117 -3.56424 -7.24643
LeftLeg  43.2546 -0.589391 -0.200704
LeftFoot  0.435741 -0.704007 6.81464
LeftToes  -1.93726e-010 2.42366e-011 2.16268e-013
1630
root  -55.3811 36.0707 8.63763 -32.6738 -81.0552 34.3688
RightUpLeg  -39.8447 -30.7374 -2.33531
RightLeg  50.8282 2.31751 2.65649
RightFoot  -12.2061 -0.122702 -5.58625
RightToes  -1.33073e-015 0 -3.6325e-017
Spine  81.5409 -19.9709 13.738
Spine1  -1.94792 -7.92979 -4.1283
HEad  -50.0943 -8.3582 -4.68555
LeftShoulder1  2.06361 -11.6987 -5.86612
LeftArm  -25.2206 -62.131 -35.3246
LeftForeArm  -12.7208 -7.7026 0.796145
LeftHand  -0.0120682 5.47425 7.82714
RightShoulder  0.471878 6.55124 -4.31926
RightArm  -36.4938 63.6229 14.9752
RightForeArm  -30.3624 8.17887 -1.27429
RightHand  -1.64771 14.0742 -10.206
LeftUpLeg  -40.4701 -3.28778 -7.21605
LeftLeg  38.2411 -0.982963 -0.461308
LeftFoot  3.50427 -0.65466 4.86972
LeftToes  -1.93726e-010 2.42366e-011 2.16268e-013
1631
root  -55.1837 36.7068 8.67375 -36.3256 -81.4703 38.9946
RightUpLeg  -39.2011 -31.8681 -1.57798
RightLeg  46.2169 3.86494 3.97941
RightFoot  -9.76165 0.0169469 -6.13892
RightToes  -1.33073e-015 0 -3.6325e-017
Spine  78.1717 -18.246 13.7421
Spine1  -1.31183 -7.37711 -3.38758
HEad  -49.3778 -7.84477 -6.12485
LeftShoulder1  2.20039 -9.85481 -8.98774
LeftArm  -17.5125 -56.6044 -45.2932
LeftForeArm  -7.66094 -7.8246 -0.395757
LeftHand  -0.131805 3.81815 7.85624
RightShoulder  0.601434 5.82738 -2.20961
RightArm  -24.3244 62.2198 25.9
RightForeArm  -27.1746 6.95092 0.246487
RightHand  -1.68266 13.9504 -10.4714
LeftUpLeg  -39.3544 -3.37613 -6.86011
LeftLeg  33.7007 -2.14939 -1.18768
LeftFoot  7.01413 -0.450207 2.56053
LeftToes  -1.93726e-010 2.42366e-011 2.16268e-013
1632
root  -54.9929 37.1709 8.81428 -35.1494 -81.5881 39.2164
RightUpLeg  -39.4348 -33.6491 -0.259428
RightLeg  42.2987 5.61275 5.12991
RightFoot  -7.91801 0.120195 -5.78884
RightToes  -1.33073e-015 0 -3.6325e-017
Spine  73.6407 -17.9205 14.9317
Spine1  -1.25773 -7.31904 -4.58378
HEad  -50.2218 -5.90588 -5.62
LeftShoulder1  2.63844 -10.6297 -11.5318
LeftArm  -14.1236 -48.783 -47.1544
LeftForeArm  -3.47818 -6.91107 -1.97384
LeftHand  -0.23678 2.85172 9.95465
RightShoulder  0.839157 4.7417 1.91698
RightArm  -12.3469 60.0426 35.557
RightForeArm  -25.492 4.72134 2.25725
RightHand  -1.86653 13.6977 -11.712
LeftUpLeg  -39.3433 -5.29094 -5.45626
LeftLeg  30.8789 -4.14259 -2.34123
LeftFoot  8.80118 0.220168 -1.67272
LeftToes  -1.93726e-010 2.42366e-011 2.16268e-013
1633
root  -54.8384 37.6016 8.99223 -36.9729 -82.0105 41.3301
RightUpLeg  -38.4286 -35.2044 0.427968
RightLeg  38.6077 7.50954 6.11962
RightFoot  -5.91503 0.225462 -5.59711
RightToes  -1.33073e-015 0 -3.6325e-017
Spine  69.133 -17.4067 15.5274
Spine1  0.908995 -7.22931 -5.94433
HEad  -50.0961 -4.70546 -5.10696
LeftShoulder1  2.75168 -9.98945 -13.4012
LeftArm  -11.5865 -42.6691 -47.6381
LeftForeArm  0.624871 -5.53775 -3.41363
LeftHand  -0.0458471 4.80193 6.42685
RightShoulder  0.916984 4.26345 3.88993
RightArm  -4.81096 56.3784 42.9306
RightForeArm  -23.4945 2.34166 3.32841
RightHand  -1.87209 12.9766 -12.1774
LeftUpLeg  -38.1 -6.67749 -3.84906
LeftLeg  30.1393 -5.44161 -3.08284
LeftFoot  6.36538 1.25276 -8.25165
LeftToes  -1.93726e-010 2.42366e-011 2.16268e-013
1634
root  -54.5934 37.9814 9.12796 -47.4059 -82.7322 52.0459
RightUpLeg  -37.3671 -34.0088 0.142042
RightLeg  34.8573 8.28837 5.89497
RightFoot  -3.73596 0.313119 -5.09271
RightToes  -1.33073e-015 0 -3.6325e-017
Spine  65.6859 -15.4522 14.7286
Spine1  1.54023 -6.34215 -6.82327
HEad  -46.6917 -5.27434 -6.03696
LeftShoulder1  2.84468 -9.52156 -15.036
LeftArm  -9.12325 -35.5851 -48.3525
LeftForeArm  3.95061 -3.69763 -4.81921
LeftHand  -0.0815922 4.1532 5.99319
RightShoulder  0.922534 2.80152 7.02079
RightArm  0.79326 51.4746 49.125
RightForeArm  -20.3609 0.963228 4.19828
RightHand  -1.8538 12.764 -12.1976
LeftUpLeg  -36.9875 -6.47333 -3.18762
LeftLeg  31.5419 -4.76512 -2.81028
LeftFoot  3.47972 1.10415 -8.58512
LeftToes  -1.93726e-010 2.42366e-011 2.16268e-013
1635
root  -54.3634 38.3753 9.26543 -60.3359 -83.0443 64.5547
RightUpLeg  -35.1898 -32.9559 -0.73717
RightLeg  30.7778 9.14603 5.59416
RightFoot  -1.63692 0.35189 -4.27115
RightToes  -1.33073e-015 0 -3.6325e-017
Spine  63.5723 -12.6384 13.2026
Spine1  0.913454 -4.96215 -5.53389
HEad  -44.0904 -5.67931 -8.35062
LeftShoulder1  2.77984 -8.13712 -17.2107
LeftArm  -9.95346 -27.471 -52.1244
LeftForeArm  12.8706 -2.9078 -3.88105
LeftHand  -0.0688186 4.30759 5.41013
RightShoulder  0.95105 1.91893 10.3138
RightArm  2.96959 45.0288 50.092
RightForeArm  -19.4848 0.366115 4.82718
RightHand  -1.79417 12.4576 -12.027
LeftUpLeg  -34.6064 -6.22293 -2.66043
LeftLeg  33.3603 -2.69524 -1.55939
LeftFoot  0.433033 0.660359 -6.40912
LeftToes  -1.93726e-010 2.42366e-011 2.16268e-013
1636
root  -54.1444 38.6412 9.43984 -74.8079 -83.4142 78.8364
RightUpLeg  -33.5782 -31.0405 -1.30077
RightLeg  27.2562 9.40408 4.99126
RightFoot  0.235953 0.339647 -3.33427
RightToes  -1.33073e-015 0 -3.6325e-017
Spine  60.86 -10.4393 11.925
Spine1  0.640423 -3.69409 -5.79863
HEad  -42.2116 -4.67868 -8.98735
LeftShoulder1  2.74553 -7.46804 -18.4799
LeftArm  -9.26085 -20.1711 -51.9064
LeftForeArm  16.4253 -1.52422 -4.60952
LeftHand  -0.0696027 4.37294 5.79189
RightShoulder  0.932138 1.07154 13.4731
RightArm  3.92022 38.3857 50.6513
RightForeArm  -18.4223 0.768126 5.07209
RightHand  -1.67302 11.3152 -11.9205
LeftUpLeg  -32.2759 -4.77249 -1.9519
LeftLeg  35.6362 -0.805174 -0.271191
LeftFoot  -3.02417 0.35701 -4.67806
LeftToes  -1.93726e-010 2.42366e-011 2.16268e-013
1637
root  -53.9113 38.7983 9.69345 -85.8903 -83.6922 90.0692
RightUpLeg  -32.6658 -29.1011 -1.68622
RightLeg  24.3943 9.09021 4.50608
RightFoot  2.0292 0.294048 -2.38524
RightToes  -1.33073e-015 0 -3.6325e-017
Spine  57.7425 -8.32569 11.0062
Spine1  0.341705 -2.51211 -5.01074
HEad  -39.8585 -3.71814 -9.65643
LeftShoulder1  2.7899 -6.83157 -20.5768
LeftArm  -8.63854 -13.5569 -50.711
LeftForeArm  17.4762 -0.336783 -5.32083
LeftHand  -0.0797316 4.31442 6.80856
RightShoulder  0.889701 0.367482 16.377
RightArm  4.04994 31.9502 49.3098
RightForeArm  -16.6373 1.7398 5.14398
RightHand  -1.30701 10.0949 -10.1591
LeftUpLeg  -30.0263 -4.02689 -0.714807
LeftLeg  37.3919 0.191416 0.517552
LeftFoot  -5.66639 0.210437 -3.60844
LeftToes  -1.93726e-010 2.42366e-011 2.16268e-013
